<svg width="64" height="64" viewBox="0 0 64 64" fill="none" xmlns="http://www.w3.org/2000/svg">
<g clip-path="url(#clip0_297_27780)">
<path fill-rule="evenodd" clip-rule="evenodd" d="M63.9708 10.7929C63.9428 4.84256 59.111 0.0270996 53.155 0.0270996C51.6751 0.0270996 50.2244 0.308268 48.9808 0.862785L9.56773 17.6C3.95074 19.9757 0 25.542 0 32.0141V53.1833C0 59.1563 4.84216 64 10.8173 64C12.3326 64 13.7738 63.6863 15.0842 63.1233L54.3296 46.4602C59.9857 44.1004 63.9719 38.5155 63.9719 32.0141L63.9708 10.7929Z" fill="#FC4C02"/>
<path fill-rule="evenodd" clip-rule="evenodd" d="M27.7115 40.512C27.2526 40.512 26.8799 40.0992 26.8799 39.5904V20.1224C26.8799 19.6132 27.2526 19.2 27.7115 19.2C28.1713 19.2 28.5439 19.6132 28.5439 20.1224V39.5904C28.5439 40.0992 28.1713 40.512 27.7115 40.512Z" fill="white"/>
<path fill-rule="evenodd" clip-rule="evenodd" d="M34.9438 39.6427V24.421C34.9438 23.9057 34.5708 23.488 34.1098 23.488C33.6514 23.488 33.2798 23.9057 33.2798 24.421V39.6427C33.2798 40.158 33.6514 40.576 34.1098 40.576C34.5708 40.576 34.9438 40.158 34.9438 39.6427Z" fill="white"/>
<path fill-rule="evenodd" clip-rule="evenodd" d="M34.9438 20.0561V20.0082C34.9438 19.562 34.5708 19.2 34.1098 19.2C33.6514 19.2 33.2798 19.562 33.2798 20.0082V20.0561C33.2798 20.5024 33.6514 20.864 34.1098 20.864C34.5708 20.864 34.9438 20.5024 34.9438 20.0561Z" fill="white"/>
<path fill-rule="evenodd" clip-rule="evenodd" d="M21.9321 38.4599C22.2998 38.0955 22.2998 37.5043 21.9321 37.1405C21.5644 36.7754 20.9688 36.7754 20.6032 37.1405C17.8892 39.8295 13.4765 39.8295 10.7636 37.1405C8.05058 34.4474 8.05058 30.0682 10.7636 27.377C12.0772 26.0736 13.8249 25.3555 15.6821 25.3555C17.5418 25.3555 19.2875 26.0736 20.6011 27.377C20.9688 27.7423 21.5644 27.7423 21.9321 27.377C22.2998 27.0118 22.2998 26.4216 21.9321 26.0566C20.2632 24.4 18.0438 23.488 15.6821 23.488C13.3215 23.488 11.1025 24.4 9.43258 26.0566C5.98634 29.4756 5.98634 35.039 9.43258 38.4599C11.156 40.1698 13.4181 41.024 15.6831 41.024C17.9457 41.024 20.2087 40.1698 21.9321 38.4599Z" fill="white"/>
<path fill-rule="evenodd" clip-rule="evenodd" d="M41.5469 44.3165V32.2379C41.5469 28.4405 44.6422 25.3506 48.4484 25.3506C52.2536 25.3506 55.3499 28.4405 55.3499 32.2379C55.3499 36.036 52.2536 39.1248 48.4484 39.1248C46.2541 39.1248 44.7691 38.2882 44.7577 38.2834C44.3135 38.0232 43.7407 38.1706 43.4802 38.6147C43.2207 39.0593 43.3696 39.6293 43.8135 39.8907C43.8901 39.9354 45.7218 40.9879 48.4484 40.9879C53.2834 40.9879 57.2159 37.0627 57.2159 32.2379C57.2159 27.413 53.2834 23.488 48.4484 23.488C43.6129 23.488 39.6799 27.413 39.6799 32.2379V44.3165C39.6799 44.8301 40.0987 45.248 40.6133 45.248C41.1285 45.248 41.5469 44.8301 41.5469 44.3165Z" fill="white"/>
<path fill-rule="evenodd" clip-rule="evenodd" d="M63.8079 50.4959C63.8079 51.9809 62.605 53.1839 61.1199 53.1839C59.6348 53.1839 58.4319 51.9809 58.4319 50.4959C58.4319 49.0108 59.6348 47.8079 61.1199 47.8079C62.605 47.8079 63.8079 49.0108 63.8079 50.4959ZM63.3846 50.4959C63.3846 49.2335 62.3674 48.2014 61.1199 48.2014C59.8724 48.2014 58.8626 49.2335 58.8626 50.4959C58.8626 51.7582 59.8724 52.7903 61.1199 52.7903C62.3674 52.7903 63.3846 51.7582 63.3846 50.4959ZM62.2485 51.9661H61.7733L61.0976 50.7632H60.6521V51.9661H60.2437V49.0182H61.2461C61.7585 49.0182 62.1743 49.4043 62.1743 49.9018C62.1743 50.3325 61.907 50.5998 61.5431 50.7112L62.2485 51.9661ZM61.7585 49.9018C61.7585 49.6048 61.5283 49.382 61.2016 49.382H60.6521V50.4142H61.2016C61.5283 50.4142 61.7585 50.1988 61.7585 49.9018Z" fill="#FC4C02"/>
</g>
<defs>
<clipPath id="clip0_297_27780">
<rect width="64" height="64" fill="white"/>
</clipPath>
</defs>
</svg>
